<?xml version="1.0" standalone="no"?>
<!DOCTYPE svg PUBLIC "-//W3C//DTD SVG 20010904//EN"
 "http://www.w3.org/TR/2001/REC-SVG-20010904/DTD/svg10.dtd">
<svg version="1.0" xmlns="http://www.w3.org/2000/svg"
 width="167.000000pt" height="167.000000pt" viewBox="0 0 167.000000 167.000000"
 preserveAspectRatio="xMidYMid meet">

<g transform="translate(0.000000,167.000000) scale(0.100000,-0.100000)"
fill="#000000" stroke="none">
<path d="M1017 1321 c-18 -66 -53 -113 -94 -130 -16 -6 -74 -19 -129 -30 -110
-21 -184 -53 -253 -109 -49 -40 -116 -137 -132 -193 -7 -20 -27 -52 -47 -70
-53 -51 -65 -88 -57 -183 8 -105 19 -136 58 -174 38 -36 75 -52 123 -52 24 0
47 -10 72 -30 115 -91 286 -122 424 -75 54 19 64 35 39 66 -18 22 -20 22 -103
10 -89 -13 -135 -10 -205 15 -50 18 -54 29 -14 37 73 15 129 107 118 196 -7
58 8 87 41 77 17 -6 22 -18 28 -65 9 -81 39 -131 94 -158 24 -13 57 -23 72
-23 24 0 27 -2 17 -18 -7 -12 -7 -25 0 -44 16 -43 47 -36 107 27 31 32 62 55
74 55 52 0 122 62 138 121 13 48 -1 187 -24 234 -16 34 -76 85 -99 85 -6 0
-29 34 -50 76 -47 92 -96 136 -175 160 l-58 17 25 55 c22 47 45 182 31 182 -3
0 -12 -27 -21 -59z m-334 -321 c-14 -28 -24 -52 -21 -55 2 -2 21 7 42 21 57
39 138 64 206 64 63 0 71 -5 43 -26 -16 -12 -10 -13 40 -14 32 0 71 -7 87 -15
27 -14 70 -60 70 -75 0 -5 -33 -11 -72 -15 -93 -9 -142 -34 -176 -90 -21 -33
-35 -45 -61 -50 -31 -6 -37 -3 -70 35 -48 54 -94 69 -193 62 -43 -2 -78 -2
-78 2 0 21 46 92 82 127 37 36 100 77 120 79 4 0 -5 -23 -19 -50z m583 -166
c50 -24 67 -64 72 -170 4 -89 4 -92 -24 -123 -33 -36 -66 -46 -196 -56 -78 -7
-90 -5 -121 14 -44 27 -56 55 -63 154 -5 66 -3 89 10 115 23 44 47 55 156 68
131 16 128 16 166 -2z m-559 -60 c34 -21 50 -61 57 -146 5 -57 3 -86 -8 -112
-23 -54 -51 -67 -180 -78 -99 -8 -119 -7 -146 7 -47 24 -66 65 -74 156 -12
140 22 175 184 188 104 8 134 6 167 -15z"/>
<path d="M975 785 c-14 -13 -25 -36 -25 -50 0 -34 13 -32 27 4 8 21 20 32 44
38 44 12 50 33 9 33 -20 0 -40 -9 -55 -25z"/>
<path d="M419 745 c-31 -17 -57 -71 -42 -86 7 -7 13 -2 17 16 5 19 20 32 52
46 24 11 42 24 39 30 -9 13 -36 11 -66 -6z"/>
</g>
</svg>
