<?xml version="1.0" encoding="UTF-8"?>
<!DOCTYPE svg PUBLIC "-//W3C//DTD SVG 1.1//EN" "http://www.w3.org/Graphics/SVG/1.1/DTD/svg11.dtd">
<svg xmlns="http://www.w3.org/2000/svg" version="1.1" width="500px" height="500px" style="shape-rendering:geometricPrecision; text-rendering:geometricPrecision; image-rendering:optimizeQuality; fill-rule:evenodd; clip-rule:evenodd" xmlns:xlink="http://www.w3.org/1999/xlink">
<g><path style="opacity:1" fill="#2ff0ff" d="M 175.5,401.5 C 175.027,400.094 174.027,399.427 172.5,399.5C 166.821,394.669 160.488,390.835 153.5,388C 144.06,386.984 134.726,385.318 125.5,383C 103.116,372.266 91.616,354.432 91,329.5C 89.6277,317.527 89.2944,305.527 90,293.5C 92.319,279.861 98.9857,268.861 110,260.5C 116.745,253.014 121.412,244.347 124,234.5C 144.711,189.525 179.545,162.358 228.5,153C 242.569,150.316 256.569,147.316 270.5,144C 281.313,140.857 289.479,134.357 295,124.5C 300.576,112.218 305.242,99.5514 309,86.5C 309.414,86.0426 309.914,85.7093 310.5,85.5C 311.969,87.192 312.635,89.192 312.5,91.5C 311.084,114.336 305.084,135.836 294.5,156C 303.032,159.178 311.698,162.178 320.5,165C 333.729,170.896 344.562,179.729 353,191.5C 360.667,204.5 368.333,217.5 376,230.5C 388.047,235.553 398.047,243.219 406,253.5C 411.662,265.142 414.995,277.475 416,290.5C 418.239,304.248 417.906,317.915 415,331.5C 405.852,352.31 390.018,364.476 367.5,368C 357.045,377.577 346.378,386.911 335.5,396C 325.167,400.081 319.333,396.581 318,385.5C 317.333,383.167 317.333,380.833 318,378.5C 319.301,376.598 319.968,374.598 320,372.5C 303.781,370.986 289.781,364.653 278,353.5C 274.937,349.431 272.27,345.098 270,340.5C 266.278,327.225 262.945,313.892 260,300.5C 257.091,297.606 253.591,296.773 249.5,298C 247.122,299.915 245.622,302.415 245,305.5C 247.807,323.707 245.14,341.04 237,357.5C 229.281,370.121 218.114,377.954 203.5,381C 202.833,381.667 202.167,382.333 201.5,383C 204.502,385.503 207.835,387.503 211.5,389C 229.329,395.21 247.662,397.21 266.5,395C 277.426,392.925 288.426,391.925 299.5,392C 307.416,395.989 310.249,402.156 308,410.5C 294.06,418.81 278.894,423.31 262.5,424C 230.885,426.014 201.885,418.514 175.5,401.5 Z M 206.5,186.5 C 207.833,186.5 208.5,187.167 208.5,188.5C 204.892,196.05 201.558,203.717 198.5,211.5C 196.279,213.33 196.112,215.33 198,217.5C 199.302,216.915 200.469,216.249 201.5,215.5C 208.275,211.943 214.942,208.11 221.5,204C 242.437,193.912 264.437,190.079 287.5,192.5C 288.11,193.391 288.443,194.391 288.5,195.5C 284.562,196.765 282.562,199.432 282.5,203.5C 308.683,198.71 329.017,207.21 343.5,229C 341.779,230.527 339.779,231.527 337.5,232C 322.518,232.997 307.851,235.664 293.5,240C 288.508,242.161 283.841,244.828 279.5,248C 273.738,254.346 268.571,261.18 264,268.5C 257.878,274.985 250.378,277.485 241.5,276C 234.522,268.691 227.189,261.691 219.5,255C 213.024,250.953 206.024,248.286 198.5,247C 182.167,246.667 165.833,246.333 149.5,246C 161.157,219.175 180.157,199.342 206.5,186.5 Z M 351.5,246.5 C 382.45,244.611 398.284,259.278 399,290.5C 408.448,328.138 393.948,348.638 355.5,352C 339.88,353.929 324.213,354.596 308.5,354C 296.322,350.693 288.155,343.193 284,331.5C 279.422,312.328 278.422,292.995 281,273.5C 284.053,265.782 289.219,259.948 296.5,256C 314.786,251.844 333.12,248.677 351.5,246.5 Z M 175.5,262.5 C 207.351,257.985 224.518,271.651 227,303.5C 229.153,316.932 228.82,330.265 226,343.5C 221.905,355.139 213.739,361.973 201.5,364C 183.78,366.922 165.946,368.755 148,369.5C 129.527,370.106 117.194,361.773 111,344.5C 108.256,331.97 106.422,319.303 105.5,306.5C 105.296,282.202 117.296,268.702 141.5,266C 152.999,264.972 164.333,263.805 175.5,262.5 Z"/></g>
<g><path style="opacity:0.013" fill="#ebfdff" d="M 206.5,186.5 C 207.209,185.596 208.209,185.263 209.5,185.5C 209.737,186.791 209.404,187.791 208.5,188.5C 208.5,187.167 207.833,186.5 206.5,186.5 Z"/></g>
<g><path style="opacity:0.373" fill="#cffcff" d="M 287.5,192.5 C 289.552,193.053 289.885,194.053 288.5,195.5C 288.443,194.391 288.11,193.391 287.5,192.5 Z"/></g>
<g><path style="opacity:1" fill="#aef9ff" d="M 198.5,211.5 C 198.5,212.833 198.5,214.167 198.5,215.5C 199.5,215.5 200.5,215.5 201.5,215.5C 200.469,216.249 199.302,216.915 198,217.5C 196.112,215.33 196.279,213.33 198.5,211.5 Z"/></g>
<g><path style="opacity:1" fill="#51f2ff" d="M 303.5,256.5 C 307.911,256.021 312.078,256.688 316,258.5C 316.595,259.899 316.428,261.232 315.5,262.5C 309.698,265.608 303.698,268.442 297.5,271C 294.098,274.968 291.598,279.468 290,284.5C 288.887,286.329 287.387,287.163 285.5,287C 282.887,281.545 283.054,276.045 286,270.5C 290.237,263.755 296.071,259.088 303.5,256.5 Z"/></g>
<g><path style="opacity:1" fill="#51f2ff" d="M 133.5,271.5 C 137.584,271.043 141.417,271.71 145,273.5C 145.667,274.5 145.667,275.5 145,276.5C 138.023,281.994 130.523,286.661 122.5,290.5C 119.519,294.294 117.186,298.461 115.5,303C 114.056,303.781 112.723,303.614 111.5,302.5C 110.465,292.713 113.798,284.547 121.5,278C 125.434,275.536 129.434,273.369 133.5,271.5 Z"/></g>
<g><path style="opacity:0.427" fill="#b4faff" d="M 172.5,399.5 C 174.027,399.427 175.027,400.094 175.5,401.5C 173.973,401.573 172.973,400.906 172.5,399.5 Z"/></g>
</svg>
